<svg xmlns="http://www.w3.org/2000/svg" viewBox="0 0 1000 500" width="100%" height="100%">
  <rect width="100%" height="100%" fill="#000000" />

  <g transform="translate(300, 240)">
    <ellipse cx="0" cy="0" rx="110" ry="40" transform="rotate(-25)" fill="none" stroke="#F5A623" stroke-width="4" />

    <g transform="rotate(-15)">
      <polygon points="-6,0 0,-120 6,0 120,0 0,6 0,120 -6,0 -120,0" fill="#FFD700" />
      <circle cx="0" cy="0" r="16" fill="#FFF566" />
    </g>
  </g>

  <path d="
    M 850,500
    L 850,250
    L 910,240 L 845,220
    L 890,200 L 835,190
    L 865,165 L 820,175
    L 825,145 L 800,165
    C 780,140 760,145 755,160
    L 730,160 L 745,185
    L 730,195 L 745,205
    L 735,215 L 750,215
    L 740,225 L 765,235
    L 755,260 L 775,270
    C 700,265 600,250 520,240
    C 480,210 450,205 430,220
    L 240,200 L 235,215 L 410,245
    C 390,275 410,300 450,290
    C 530,300 610,320 700,340
    L 710,500 Z
  " fill="#FFFFFF" />
</svg>